# Blender v3.2.2 OBJ File: ''
# www.blender.org
mtllib SCRUB_SHRUB_1.mtl
o Plane.003
v 0.064188 0.941661 -0.484776
v 0.847846 1.674748 0.158667
v 0.386557 0.941661 0.339151
v 0.062773 -0.004448 -0.143054
v -0.331933 1.239726 0.759037
v -0.028678 1.365693 0.065954
v -0.378088 -0.026756 -0.965561
v 0.098758 2.343453 0.253185
v 0.098759 -0.026756 0.253185
v 0.680899 -0.029446 -0.266622
v -0.178543 1.641991 0.069643
v -0.178542 -0.029446 0.069643
v 0.620185 -0.071002 0.266683
v -0.716650 1.308706 -0.143127
v -0.652340 -0.071002 -0.290105
v 0.196122 0.691869 0.434992
v -0.634737 1.295461 0.516625
v -0.471252 0.691869 0.142985
v -0.534088 1.315124 -0.181986
v 0.175207 2.048211 -0.906583
v 0.314800 1.315124 -0.431319
v 0.064188 0.941661 -0.484776
v 0.847846 1.674748 0.158667
v 0.386557 0.941661 0.339151
v -0.093971 1.031337 -0.197731
v 0.894874 2.431403 -0.227344
v 1.159719 1.601545 0.167085
v -0.122012 1.142737 -0.455555
v -1.069917 1.880776 0.029558
v -1.170450 1.386023 -0.487518
v 0.015418 1.402964 -0.429602
v -1.202945 1.652686 -0.066569
v -0.817088 2.082102 -0.501278
v -0.330170 1.319216 -0.095632
v 1.207327 2.040660 -0.329080
v 0.647424 2.214683 0.426304
v -0.698917 2.125135 -0.394974
v 0.634926 3.362450 0.345688
v -0.637754 3.498154 -0.193944
v 0.244658 2.214587 -0.726240
v -0.236452 3.232402 0.883498
v 0.367384 3.539908 -0.329002
v -0.027549 2.016041 -0.317387
v -0.939284 2.668971 0.331445
v -1.001204 2.473723 -0.361591
v 0.126617 2.218306 -0.163071
v -1.107724 2.451869 0.153808
v -0.626593 2.969624 0.003149
v -0.641128 1.318077 -0.540590
v -0.012155 1.977782 1.534821
v -1.197572 1.946043 1.158285
v -0.010971 1.921222 -0.504337
v -0.723161 1.375636 1.577314
v -0.166718 0.747669 -0.121561
v -0.414642 0.510228 -0.184624
v 1.753479 0.519570 -0.845922
v 0.396070 -0.383092 0.119889
v -0.235814 -0.252940 -0.553685
v 1.472198 1.235452 -0.479303
v 0.114788 0.332790 0.486507
v 0.525476 1.674748 -0.665260
v -0.240483 -0.130415 0.550029
v -0.378088 2.343453 -0.965561
v 0.680899 1.641991 -0.266622
v 0.555875 1.308706 0.413661
v 0.032637 1.295461 0.808633
v -0.673681 2.048211 -0.657250
v 0.525476 1.674748 -0.665260
v -0.358816 1.861194 -0.592160
v -0.021480 1.637490 0.061520
v -0.370439 0.973548 0.005106
v 0.229733 1.145193 -0.851016
v 0.573763 1.989432 0.144658
v -0.359178 1.907082 0.486259
v 0.034371 2.211288 0.375649
v -0.354514 1.700552 -0.012411
v 0.544289 1.349816 -0.164054
v -0.567414 2.549189 1.194538
v 0.942768 1.412890 -1.150435
v 1.121596 0.649722 -1.519495
v -0.002667 1.806588 -0.072712
v 0.420905 3.201996 0.828567
v 0.631991 2.309585 1.099538
v -0.213754 2.698998 -0.343685
v -0.676533 1.355879 0.195132
v -0.280058 2.411436 -1.210002
v 0.224272 1.355879 -0.705672
v -0.224938 -0.006404 -0.000238
v 1.192857 1.785057 -0.000238
v 0.103555 1.966434 -0.000238
v -1.055479 -0.038526 1.056053
v 0.276984 3.374292 -0.276409
v 0.276984 -0.038526 -0.276410
v -0.744713 -0.042399 -0.744308
v 0.194920 2.364270 0.195325
v 0.194920 -0.042399 0.195325
v -0.006169 -0.102234 -0.972032
v 0.224833 1.884380 1.027968
v -0.006169 -0.102235 1.027968
v 0.460615 0.996209 -0.509781
v 1.047857 1.865308 0.539117
v 0.460615 0.996209 0.539117
v 0.068202 1.893621 0.809573
v -1.297030 2.949178 0.292142
v -0.750665 1.893621 -0.166314
v -0.676533 1.355879 0.195132
v -0.280058 2.411436 -1.210002
v 0.224272 1.355879 -0.705672
v -0.206595 1.485001 0.238087
v -0.816402 3.500928 -1.049239
v -0.448962 2.306033 -1.626263
v -0.530515 1.645404 0.423889
v 0.656528 2.708092 1.394305
v 0.032461 1.995707 1.825367
v -0.575602 2.020100 0.227620
v 0.606504 2.379669 1.625268
v -0.189644 2.997977 1.367177
v 0.064416 1.899513 0.490736
v -1.130948 2.938306 -1.402688
v 0.188670 3.188878 -1.100093
v -0.117621 3.059939 1.149938
v 0.089540 4.841525 -1.037076
v 0.112260 5.036922 0.953226
v -1.099221 3.188740 0.096437
v 1.301927 4.654272 -0.198026
v -0.646047 5.097043 -0.294733
v -0.402776 2.902858 0.219531
v 0.979358 3.842998 1.047738
v 0.100889 3.561865 1.529427
v -0.288193 3.194095 -0.072902
v 0.842252 3.530397 1.372462
v 0.365811 4.275902 0.824744
v -0.343064 1.897872 1.157753
v 2.031650 2.847769 -0.869837
v 2.219150 2.802069 0.911218
v -0.658956 2.766330 0.305566
v 2.498085 1.980751 0.043550
v -0.064129 1.076554 0.290087
v -0.004220 0.734667 0.653530
v -2.127961 0.748119 -1.824824
v -0.070455 -0.551606 -0.591667
v -0.594277 -0.364204 0.630647
v -1.481991 1.778903 -1.665382
v 0.575514 0.479178 -0.432224
v -1.180862 2.411436 -0.309198
v 0.864364 -0.187782 -0.000238
v -1.055479 3.374292 1.056054
v -0.744713 2.364270 -0.744308
v 0.224833 1.884380 -0.972032
v 1.047857 1.865308 -0.509781
v -0.478164 2.949178 1.268028
v -1.180862 2.411436 -0.309198
v -0.574036 2.679896 0.815111
v 0.093551 2.357789 -0.007174
v 0.220547 1.401793 0.485711
v -1.255203 1.648941 0.188142
v -0.140342 2.864543 -0.840364
v 0.848753 2.745969 0.193144
v 0.475693 3.183990 -0.262157
v 0.188247 2.448591 0.474815
v -0.530564 1.943573 -0.623302
v 1.903258 3.670527 0.059030
v -2.061726 2.034392 -0.579627
v -2.651783 0.935522 -0.602510
v -0.094377 2.601270 0.045487
v 0.850051 4.610490 -1.033462
v 1.085665 3.325525 -1.468314
v -0.329992 3.886234 0.480339
v -0.324711 1.054402 -0.440883
v 0.807119 1.875257 -0.530468
v 0.575198 1.054402 -0.026639
v -0.060464 -0.004980 -0.164141
v 0.321736 1.388152 0.870045
v 0.028089 1.529201 0.075472
v -1.054849 -0.029960 -0.485217
v 0.276290 2.624023 0.127528
v 0.276290 -0.029960 0.127528
v 0.342168 -0.032971 -0.743864
v -0.089931 1.838578 0.194835
v -0.089931 -0.032971 0.194835
v 0.707369 -0.079503 -0.266534
v -0.689224 1.465391 0.441113
v -0.751496 -0.079503 0.272613
v 0.496021 0.774703 0.198564
v -0.110775 1.450560 0.909673
v -0.269080 0.774703 0.481319
v -0.572144 1.472577 0.267988
v -0.562743 2.293433 -0.867343
v -0.081045 1.472577 -0.592393
v -0.324711 1.054402 -0.440883
v 0.807119 1.875257 -0.530468
v 0.575198 1.054402 -0.026639
v -0.229361 1.154813 -0.086515
v 0.545270 2.722502 -0.878358
v 1.065222 1.793290 -0.765885
v -0.452211 1.279551 -0.272706
v -0.840069 2.105952 0.854761
v -1.322732 1.551965 0.515749
v -0.321201 1.570934 -0.358503
v -1.022027 1.850554 0.880533
v -1.048387 2.331382 0.230222
v -0.340594 1.477159 0.179276
v 0.718293 2.284978 -1.203078
v 0.853305 2.479836 -0.158934
v -0.870510 2.379567 0.224196
v 0.780616 3.765020 -0.214254
v -0.665051 3.916970 0.338851
v -0.366664 2.479729 -0.775811
v 0.495412 3.619402 0.896286
v 0.040832 3.963723 -0.550699
v -0.268710 2.257412 -0.234618
v -0.500245 2.988513 0.996818
v -1.088417 2.769890 0.485884
v -0.024511 2.483893 -0.229870
v -0.774070 2.745419 0.984345
v -0.502981 3.325162 0.489164
v -0.936984 1.475883 0.061857
v 1.182167 2.214572 1.247468
v -0.066448 2.179034 1.864361
v -0.400527 2.151241 -0.398292
v 0.641651 1.540334 1.833925
v -0.228886 0.837184 0.031422
v -0.477844 0.571315 0.173096
v 0.757445 0.581776 -2.044129
v 0.412588 -0.428957 -0.210890
v -0.620216 -0.283223 -0.263480
v 0.815279 1.383367 -1.529956
v 0.470422 0.372633 0.303283
v -0.092790 1.875257 -0.944712
v 0.233183 -0.146029 0.630432
v -1.054849 2.624023 -0.485217
v 0.342168 1.838578 -0.743864
v 0.769641 1.465391 -0.098033
v 0.654326 1.450560 0.626918
v -1.053842 2.293433 -0.006962
v -0.092790 1.875257 -0.944711
v -0.749314 2.084025 -0.198989
v 0.030452 1.833538 0.066306
v -0.294840 1.090106 0.291809
v -0.475606 1.282301 -0.864868
v 0.575157 2.227617 -0.328910
v 0.087915 2.135407 0.671175
v 0.319461 2.476035 0.276315
v -0.295600 1.904150 0.265311
v 0.311631 1.511423 -0.555036
v 0.470010 2.854391 1.404212
v -0.132987 1.582048 -1.660143
v -0.275359 0.727510 -2.096718
v -0.058621 2.022882 -0.056580
v 0.982993 3.585355 0.341462
v 1.363703 2.586100 0.396101
v -0.439332 3.022136 -0.111220
vt 0.971069 0.010427
vt 0.510522 0.479127
vt 0.510522 0.010427
vt 0.261983 0.503814
vt 0.489985 1.000000
vt 0.261983 1.000000
vt 0.489985 0.503814
vt 0.261983 1.000000
vt 0.261983 0.503814
vt 0.489985 0.503814
vt 0.261983 1.000000
vt 0.261983 0.503814
vt 0.510522 0.010427
vt 0.971069 0.479127
vt 0.971069 0.010427
vt 0.971069 0.010427
vt 0.510522 0.479127
vt 0.510522 0.010427
vt 0.971069 0.010427
vt 0.510522 0.479127
vt 0.510522 0.010427
vt 0.971069 0.010427
vt 0.510522 0.479127
vt 0.510522 0.010427
vt 0.755460 0.474931
vt 1.000000 0.921255
vt 0.755460 0.921255
vt 0.755460 0.474931
vt 1.000000 0.921255
vt 0.755460 0.921255
vt 0.755460 0.474931
vt 1.000000 0.921255
vt 0.755460 0.921255
vt 0.755460 0.474931
vt 1.000000 0.921255
vt 0.755460 0.921255
vt 0.510522 0.010427
vt 0.971069 0.479127
vt 0.510522 0.479127
vt 0.971069 0.010427
vt 0.510522 0.479127
vt 0.971069 0.479127
vt 0.755460 0.474931
vt 1.000000 0.921255
vt 0.755460 0.921255
vt 0.755460 0.474931
vt 1.000000 0.921255
vt 0.755460 0.921255
vt 0.271826 -0.003108
vt 0.505981 0.491431
vt 0.271826 0.491431
vt 0.258672 0.493971
vt 0.024518 0.974975
vt 0.024518 0.493971
vt 0.258672 0.493971
vt 0.024518 0.974975
vt 0.024518 0.493971
vt 0.505981 -0.003108
vt 0.271826 0.491431
vt 0.271826 -0.003108
vt 0.971069 0.479127
vt 0.489985 0.503814
vt 0.489985 1.000000
vt 0.489985 1.000000
vt 0.510522 0.479127
vt 0.971069 0.479127
vt 0.971069 0.479127
vt 0.971069 0.479127
vt 1.000000 0.474931
vt 1.000000 0.474931
vt 1.000000 0.474931
vt 1.000000 0.474931
vt 0.971069 0.010427
vt 0.510522 0.010427
vt 1.000000 0.474931
vt 1.000000 0.474931
vt 0.505981 -0.003108
vt 0.258672 0.974975
vt 0.258672 0.974975
vt 0.505981 0.491431
vt 0.755460 0.474931
vt 1.000000 0.921255
vt 0.755460 0.921255
vt 1.000000 0.474931
vt 0.971069 0.010427
vt 0.510522 0.479127
vt 0.510522 0.010427
vt 0.261983 0.503814
vt 0.489985 1.000000
vt 0.261983 1.000000
vt 0.489985 0.503814
vt 0.261983 1.000000
vt 0.261983 0.503814
vt 0.489985 0.503814
vt 0.261983 1.000000
vt 0.261983 0.503814
vt 0.510522 0.010427
vt 0.971069 0.479127
vt 0.971069 0.010427
vt 0.971069 0.010427
vt 0.510522 0.479127
vt 0.510522 0.010427
vt 0.971069 0.010427
vt 0.510522 0.479127
vt 0.510522 0.010427
vt 0.971069 0.010427
vt 0.510522 0.479127
vt 0.510522 0.010427
vt 0.755460 0.474931
vt 1.000000 0.921255
vt 0.755460 0.921255
vt 0.755460 0.474931
vt 1.000000 0.921255
vt 0.755460 0.921255
vt 0.755460 0.474931
vt 1.000000 0.921255
vt 0.755460 0.921255
vt 0.755460 0.474931
vt 1.000000 0.921255
vt 0.755460 0.921255
vt 0.510522 0.010427
vt 0.971069 0.479127
vt 0.510522 0.479127
vt 0.971069 0.010427
vt 0.510522 0.479127
vt 0.971069 0.479127
vt 0.755460 0.474931
vt 1.000000 0.921255
vt 0.755460 0.921255
vt 0.755460 0.474931
vt 1.000000 0.921255
vt 0.755460 0.921255
vt 0.271826 -0.003108
vt 0.505981 0.491431
vt 0.271826 0.491431
vt 0.258672 0.493971
vt 0.024518 0.974975
vt 0.024518 0.493971
vt 0.258672 0.493971
vt 0.024518 0.974975
vt 0.024518 0.493971
vt 0.505981 -0.003108
vt 0.271826 0.491431
vt 0.271826 -0.003108
vt 0.971069 0.479127
vt 0.489985 0.503814
vt 0.489985 1.000000
vt 0.489985 1.000000
vt 0.510522 0.479127
vt 0.971069 0.479127
vt 0.971069 0.479127
vt 0.971069 0.479127
vt 1.000000 0.474931
vt 1.000000 0.474931
vt 1.000000 0.474931
vt 1.000000 0.474931
vt 0.971069 0.010427
vt 0.510522 0.010427
vt 1.000000 0.474931
vt 1.000000 0.474931
vt 0.505981 -0.003108
vt 0.258672 0.974975
vt 0.258672 0.974975
vt 0.505981 0.491431
vt 0.755460 0.474931
vt 1.000000 0.921255
vt 0.755460 0.921255
vt 1.000000 0.474931
vt 0.971069 0.010427
vt 0.510522 0.479127
vt 0.510522 0.010427
vt 0.261983 0.503814
vt 0.489985 1.000000
vt 0.261983 1.000000
vt 0.489985 0.503814
vt 0.261983 1.000000
vt 0.261983 0.503814
vt 0.489985 0.503814
vt 0.261983 1.000000
vt 0.261983 0.503814
vt 0.510522 0.010427
vt 0.971069 0.479127
vt 0.971069 0.010427
vt 0.971069 0.010427
vt 0.510522 0.479127
vt 0.510522 0.010427
vt 0.971069 0.010427
vt 0.510522 0.479127
vt 0.510522 0.010427
vt 0.971069 0.010427
vt 0.510522 0.479127
vt 0.510522 0.010427
vt 0.755460 0.474931
vt 1.000000 0.921255
vt 0.755460 0.921255
vt 0.755460 0.474931
vt 1.000000 0.921255
vt 0.755460 0.921255
vt 0.755460 0.474931
vt 1.000000 0.921255
vt 0.755460 0.921255
vt 0.755460 0.474931
vt 1.000000 0.921255
vt 0.755460 0.921255
vt 0.510522 0.010427
vt 0.971069 0.479127
vt 0.510522 0.479127
vt 0.971069 0.010427
vt 0.510522 0.479127
vt 0.971069 0.479127
vt 0.755460 0.474931
vt 1.000000 0.921255
vt 0.755460 0.921255
vt 0.755460 0.474931
vt 1.000000 0.921255
vt 0.755460 0.921255
vt 0.271826 -0.003108
vt 0.505981 0.491431
vt 0.271826 0.491431
vt 0.258672 0.493971
vt 0.024518 0.974975
vt 0.024518 0.493971
vt 0.258672 0.493971
vt 0.024518 0.974975
vt 0.024518 0.493971
vt 0.505981 -0.003108
vt 0.271826 0.491431
vt 0.271826 -0.003108
vt 0.971069 0.479127
vt 0.489985 0.503814
vt 0.489985 1.000000
vt 0.489985 1.000000
vt 0.510522 0.479127
vt 0.971069 0.479127
vt 0.971069 0.479127
vt 0.971069 0.479127
vt 1.000000 0.474931
vt 1.000000 0.474931
vt 1.000000 0.474931
vt 1.000000 0.474931
vt 0.971069 0.010427
vt 0.510522 0.010427
vt 1.000000 0.474931
vt 1.000000 0.474931
vt 0.505981 -0.003108
vt 0.258672 0.974975
vt 0.258672 0.974975
vt 0.505981 0.491431
vt 0.755460 0.474931
vt 1.000000 0.921255
vt 0.755460 0.921255
vt 1.000000 0.474931
vn 0.7716 -0.5599 -0.3019
vn -0.9161 0.0000 -0.4009
vn 0.9313 0.0000 -0.3644
vn 0.3644 -0.0000 0.9313
vn -0.3982 -0.1155 0.9100
vn -0.3321 -0.5599 0.7591
vn -0.2335 -0.5599 -0.7950
vn 0.3873 -0.2920 -0.8745
vn -0.1820 -0.6926 0.6980
vn -0.3398 -0.5006 -0.7962
vn 0.4298 -0.7565 0.4929
vn -0.8962 0.2015 -0.3952
vn -0.4187 -0.8636 0.2807
vn -0.2561 -0.0431 -0.9657
vn -0.0774 -0.9431 0.3233
vn 0.9477 -0.0219 0.3185
vn -0.2494 -0.5075 -0.8248
vn 0.6383 -0.7426 0.2030
vn 0.8679 0.0554 -0.4936
vn -0.5859 -0.5599 -0.5859
vn 0.0000 -0.0000 1.0000
vn -0.7071 0.0000 -0.7071
vn 0.7071 0.0000 -0.7071
vn 0.9933 -0.1155 -0.0000
vn 0.8286 -0.5599 -0.0000
vn -0.6347 -0.5599 0.5326
vn -0.9564 -0.2920 -0.0043
vn 0.7124 -0.6926 -0.1131
vn -0.5932 -0.5006 0.6305
vn 0.2792 -0.7565 -0.5913
vn -0.0028 0.2015 0.9795
vn 0.4250 -0.8636 0.2711
vn -0.7821 -0.0431 0.6217
vn 0.3272 -0.9431 -0.0586
vn -0.0881 -0.0219 -0.9959
vn -0.6557 -0.5075 0.5591
vn -0.0699 -0.7426 -0.6661
vn -0.8002 0.0554 -0.5972
vn 0.3465 -0.5599 -0.7527
vn -0.9380 0.0000 0.3467
vn 0.4181 0.0000 -0.9084
vn 0.9084 -0.0000 0.4181
vn 0.3443 -0.1155 0.9317
vn 0.2872 -0.5599 0.7772
vn -0.7196 -0.5599 -0.4107
vn -0.3275 -0.2920 -0.8986
vn 0.3530 -0.6926 0.6291
vn -0.7970 -0.5006 -0.3378
vn 0.6515 -0.7565 0.0569
vn -0.9197 0.2015 0.3369
vn -0.1069 -0.8636 0.4926
vn -0.8543 -0.0431 -0.5181
vn 0.1684 -0.9431 0.2866
vn 0.9036 -0.0219 -0.4279
vn -0.7517 -0.5075 -0.4212
vn 0.6006 -0.7426 -0.2964
vn 0.2828 0.0554 -0.9576
usemtl Material.004
s 1
f 1/1/1 2/2/1 3/3/1
f 4/4/2 5/5/2 6/6/2
f 7/7/3 8/8/3 9/9/3
f 10/10/4 11/11/4 12/12/4
f 13/13/5 14/14/5 15/15/5
f 16/16/6 17/17/6 18/18/6
f 19/19/7 20/20/7 21/21/7
f 22/22/1 23/23/1 24/24/1
f 25/25/8 26/26/8 27/27/8
f 28/28/9 29/29/9 30/30/9
f 31/31/10 32/32/10 33/33/10
f 34/34/11 35/35/11 36/36/11
f 37/37/5 38/38/5 39/39/5
f 40/40/12 41/41/12 42/42/12
f 43/43/13 44/44/13 45/45/13
f 46/46/14 47/47/14 48/48/14
f 49/49/15 50/50/15 51/51/15
f 52/52/16 53/53/16 54/54/16
f 55/55/17 56/56/17 57/57/17
f 58/58/18 59/59/18 60/60/18
f 1/1/1 61/61/1 2/2/1
f 4/4/2 62/62/2 5/5/2
f 7/7/3 63/63/3 8/8/3
f 10/10/4 64/64/4 11/11/4
f 13/13/5 65/65/5 14/14/5
f 16/16/6 66/66/6 17/17/6
f 19/19/7 67/67/7 20/20/7
f 22/22/1 68/68/1 23/23/1
f 25/25/8 69/69/8 26/26/8
f 28/28/9 70/70/9 29/29/9
f 31/31/10 71/71/10 32/32/10
f 34/34/11 72/72/11 35/35/11
f 37/37/5 73/73/5 38/38/5
f 40/40/12 74/74/12 41/41/12
f 43/43/13 75/75/13 44/44/13
f 46/46/14 76/76/14 47/47/14
f 49/49/15 77/77/15 50/50/15
f 52/52/16 78/78/16 53/53/16
f 55/55/17 79/79/17 56/56/17
f 58/58/18 80/80/18 59/59/18
f 81/81/19 82/82/19 83/83/19
f 81/81/19 84/84/19 82/82/19
f 85/85/20 86/86/20 87/87/20
f 88/88/21 89/89/21 90/90/21
f 91/91/22 92/92/22 93/93/22
f 94/94/23 95/95/23 96/96/23
f 97/97/24 98/98/24 99/99/24
f 100/100/25 101/101/25 102/102/25
f 103/103/26 104/104/26 105/105/26
f 106/106/20 107/107/20 108/108/20
f 109/109/27 110/110/27 111/111/27
f 112/112/28 113/113/28 114/114/28
f 115/115/29 116/116/29 117/117/29
f 118/118/30 119/119/30 120/120/30
f 121/121/24 122/122/24 123/123/24
f 124/124/31 125/125/31 126/126/31
f 127/127/32 128/128/32 129/129/32
f 130/130/33 131/131/33 132/132/33
f 133/133/34 134/134/34 135/135/34
f 136/136/35 137/137/35 138/138/35
f 139/139/36 140/140/36 141/141/36
f 142/142/37 143/143/37 144/144/37
f 85/85/20 145/145/20 86/86/20
f 88/88/21 146/146/21 89/89/21
f 91/91/22 147/147/22 92/92/22
f 94/94/23 148/148/23 95/95/23
f 97/97/24 149/149/24 98/98/24
f 100/100/25 150/150/25 101/101/25
f 103/103/26 151/151/26 104/104/26
f 106/106/20 152/152/20 107/107/20
f 109/109/27 153/153/27 110/110/27
f 112/112/28 154/154/28 113/113/28
f 115/115/29 155/155/29 116/116/29
f 118/118/30 156/156/30 119/119/30
f 121/121/24 157/157/24 122/122/24
f 124/124/31 158/158/31 125/125/31
f 127/127/32 159/159/32 128/128/32
f 130/130/33 160/160/33 131/131/33
f 133/133/34 161/161/34 134/134/34
f 136/136/35 162/162/35 137/137/35
f 139/139/36 163/163/36 140/140/36
f 142/142/37 164/164/37 143/143/37
f 165/165/38 166/166/38 167/167/38
f 165/165/38 168/168/38 166/166/38
f 169/169/39 170/170/39 171/171/39
f 172/172/40 173/173/40 174/174/40
f 175/175/41 176/176/41 177/177/41
f 178/178/42 179/179/42 180/180/42
f 181/181/43 182/182/43 183/183/43
f 184/184/44 185/185/44 186/186/44
f 187/187/45 188/188/45 189/189/45
f 190/190/39 191/191/39 192/192/39
f 193/193/46 194/194/46 195/195/46
f 196/196/47 197/197/47 198/198/47
f 199/199/48 200/200/48 201/201/48
f 202/202/49 203/203/49 204/204/49
f 205/205/43 206/206/43 207/207/43
f 208/208/50 209/209/50 210/210/50
f 211/211/51 212/212/51 213/213/51
f 214/214/52 215/215/52 216/216/52
f 217/217/53 218/218/53 219/219/53
f 220/220/54 221/221/54 222/222/54
f 223/223/55 224/224/55 225/225/55
f 226/226/56 227/227/56 228/228/56
f 169/169/39 229/229/39 170/170/39
f 172/172/40 230/230/40 173/173/40
f 175/175/41 231/231/41 176/176/41
f 178/178/42 232/232/42 179/179/42
f 181/181/43 233/233/43 182/182/43
f 184/184/44 234/234/44 185/185/44
f 187/187/45 235/235/45 188/188/45
f 190/190/39 236/236/39 191/191/39
f 193/193/46 237/237/46 194/194/46
f 196/196/47 238/238/47 197/197/47
f 199/199/48 239/239/48 200/200/48
f 202/202/49 240/240/49 203/203/49
f 205/205/43 241/241/43 206/206/43
f 208/208/50 242/242/50 209/209/50
f 211/211/51 243/243/51 212/212/51
f 214/214/52 244/244/52 215/215/52
f 217/217/53 245/245/53 218/218/53
f 220/220/54 246/246/54 221/221/54
f 223/223/55 247/247/55 224/224/55
f 226/226/56 248/248/56 227/227/56
f 249/249/57 250/250/57 251/251/57
f 249/249/57 252/252/57 250/250/57
