# Wavefront Obj file
# 
# verts: 52 uv-s: 82
mtllib SODA_1U.mtl

g ophidian_slick_low_poly_Cylinder
#pivot 0.000000 0.000000 0.000000

v 0.000000 2.400000 -0.830255
v 0.000000 2.055682 -1.000000
v 0.415128 2.400000 -0.719022
v 0.500000 2.055682 -0.866025
v 0.719022 2.400000 -0.415128
v 0.866025 2.055682 -0.500000
v 0.830255 2.400000 0.000000
v 1.000000 2.055682 0.000000
v 0.719022 2.400000 0.415128
v 0.866025 2.055682 0.500000
v 0.415128 2.400000 0.719022
v 0.500000 2.055682 0.866025
v 0.000000 2.400000 0.830255
v 0.000000 2.055682 1.000000
v -0.415128 2.400000 0.719022
v -0.500000 2.055682 0.866025
v -0.719022 2.400000 0.415127
v -0.866025 2.055682 0.500000
v -0.830255 2.400000 0.000000
v -1.000000 2.055682 0.000000
v -0.719022 2.400000 -0.415127
v -0.866025 2.055682 -0.500000
v -0.415128 2.400000 -0.719022
v -0.500000 2.055682 -0.866025
v 0.000000 -2.100000 -0.946335
v 0.000000 -1.991145 -1.000000
v 0.500000 -1.991145 -0.866025
v 0.473168 -2.100000 -0.819551
v 0.866025 -1.991145 -0.500000
v 0.819551 -2.100000 -0.473168
v 1.000000 -1.991145 0.000000
v 0.946335 -2.100000 0.000000
v 0.866025 -1.991145 0.500000
v 0.819551 -2.100000 0.473168
v 0.500000 -1.991145 0.866025
v 0.473168 -2.100000 0.819551
v 0.000000 -1.991145 1.000000
v 0.000000 -2.100000 0.946335
v -0.500000 -1.991145 0.866025
v -0.473168 -2.100000 0.819551
v -0.866025 -1.991145 0.500000
v -0.819551 -2.100000 0.473168
v -1.000000 -1.991145 0.000000
v -0.946335 -2.100000 0.000000
v -0.866025 -1.991145 -0.500000
v -0.819551 -2.100000 -0.473168
v -0.500000 -1.991145 -0.866025
v -0.473168 -2.100000 -0.819550
v 0.830255 2.400000 0.000000
v 1.000000 2.055682 0.000000
v 1.000000 -1.991145 0.000000
v 0.946335 -2.100000 0.000000
# 52 positions

vt 0.265325 0.384298
vt 0.265325 0.924900
vt 0.186339 0.924900
vt 0.186339 0.384298
vt 0.976204 0.384298
vt 0.976204 0.924900
vt 0.897218 0.924900
vt 0.897218 0.384298
vt 0.818231 0.924900
vt 0.818231 0.384298
vt 0.739245 0.924900
vt 0.739245 0.384298
vt 0.660258 0.924900
vt 0.660258 0.384298
vt 0.581271 0.924900
vt 0.581271 0.384298
vt 0.502285 0.924900
vt 0.502285 0.384298
vt 0.423298 0.924900
vt 0.423298 0.384298
vt 0.344312 0.924900
vt 0.344312 0.384298
vt 0.107352 0.924900
vt 0.107352 0.384298
vt 0.028365 0.924900
vt 0.028365 0.384298
vt 0.265325 0.976182
vt 0.186339 0.976182
vt 0.107352 0.976182
vt 0.028365 0.976182
vt 0.976204 0.976182
vt 0.897218 0.976182
vt 0.818231 0.976182
vt 0.739245 0.976182
vt 0.660258 0.976182
vt 0.581271 0.976182
vt 0.502285 0.976182
vt 0.423298 0.976182
vt 0.344312 0.976182
vt 0.908682 0.144543
vt 0.908682 0.228704
vt 0.866601 0.301590
vt 0.793715 0.343671
vt 0.709554 0.343671
vt 0.636668 0.301590
vt 0.594587 0.228704
vt 0.594587 0.144543
vt 0.636668 0.071656
vt 0.709554 0.029576
vt 0.793715 0.029576
vt 0.866601 0.071657
vt 0.186339 0.368086
vt 0.265325 0.368086
vt 0.107352 0.368086
vt 0.028365 0.368086
vt 0.897218 0.368086
vt 0.976204 0.368086
vt 0.818231 0.368086
vt 0.739245 0.368086
vt 0.660258 0.368086
vt 0.581271 0.368086
vt 0.502285 0.368086
vt 0.423298 0.368086
vt 0.344312 0.368086
vt 0.181712 0.070877
vt 0.255105 0.028504
vt 0.339851 0.028504
vt 0.413243 0.070877
vt 0.455616 0.144269
vt 0.455616 0.229016
vt 0.413243 0.302408
vt 0.339851 0.344781
vt 0.255105 0.344781
vt 0.181712 0.302408
vt 0.139339 0.229016
vt 0.139339 0.144269
vt 0.976204 0.924900
vt 0.976204 0.384298
vt 0.028365 0.368086
vt 0.028365 0.384298
vt 0.028365 0.924900
vt 0.028365 0.976182
# 82 texture coordinates

vn 0.000000 0.000000 -1.000000
vn 0.500000 0.000000 -0.866025
vn 0.965926 0.000000 0.258820
vn 0.866025 0.000000 0.500000
vn 0.500000 0.000000 0.866025
vn 0.000000 0.000000 1.000000
vn -0.500000 0.000000 0.866025
vn -0.866025 0.000000 0.500000
vn -1.000000 0.000000 0.000000
vn -0.866025 0.000000 -0.500000
vn -0.500000 0.000000 -0.866025
vn 0.866025 0.000000 -0.500000
vn 0.965926 0.000000 -0.258820
vn 0.448465 0.442175 -0.776763
vn 0.000000 0.442175 -0.896929
vn 0.776763 0.442175 -0.448465
vn 0.872097 0.429933 -0.233678
vn 0.776763 0.442175 0.448465
vn 0.872097 0.429933 0.233678
vn 0.448465 0.442175 0.776763
vn 0.000000 0.442175 0.896929
vn -0.448465 0.442175 0.776763
vn -0.776763 0.442175 0.448464
vn -0.896929 0.442175 -0.000000
vn -0.776763 0.442175 -0.448464
vn -0.448465 0.442175 -0.776763
vn 0.000000 1.000000 0.000000
vn -0.000000 -0.442178 -0.896927
vn 0.448465 -0.442174 -0.776764
vn 0.776764 -0.442174 -0.448465
vn 0.872096 -0.429934 -0.233677
vn 0.872096 -0.429934 0.233677
vn 0.776764 -0.442174 0.448465
vn 0.448465 -0.442174 0.776764
vn -0.000000 -0.442176 0.896928
vn -0.448465 -0.442174 0.776764
vn -0.776764 -0.442174 0.448465
vn -0.896928 -0.442176 -0.000000
vn -0.776763 -0.442175 -0.448464
vn -0.448464 -0.442177 -0.776762
vn 0.000000 -1.000000 0.000000
# 41 normals

usemtl Material
f 26/1/1 2/2/1 4/3/2 27/4/2
f 31/5/3 8/6/3 10/7/4 33/8/4
f 33/8/4 10/7/4 12/9/5 35/10/5
f 35/10/5 12/9/5 14/11/6 37/12/6
f 37/12/6 14/11/6 16/13/7 39/14/7
f 39/14/7 16/13/7 18/15/8 41/16/8
f 41/16/8 18/15/8 20/17/9 43/18/9
f 43/18/9 20/17/9 22/19/10 45/20/10
f 45/20/10 22/19/10 24/21/11 47/22/11
f 27/4/2 4/3/2 6/23/12 29/24/12
f 29/24/12 6/23/12 8/25/13 31/26/13
f 47/22/11 24/21/11 2/2/1 26/1/1
f 4/3/14 2/2/15 1/27/15 3/28/14
f 6/23/16 4/3/14 3/28/14 5/29/16
f 8/25/17 6/23/16 5/29/16 7/30/17
f 10/7/18 8/6/19 7/31/19 9/32/18
f 12/9/20 10/7/18 9/32/18 11/33/20
f 14/11/21 12/9/20 11/33/20 13/34/21
f 16/13/22 14/11/21 13/34/21 15/35/22
f 18/15/23 16/13/22 15/35/22 17/36/23
f 20/17/24 18/15/23 17/36/23 19/37/24
f 22/19/25 20/17/24 19/37/24 21/38/25
f 24/21/26 22/19/25 21/38/25 23/39/26
f 2/2/15 24/21/26 23/39/26 1/27/15
f 3/40/27 1/41/27 23/42/27 21/43/27 19/44/27 17/45/27 15/46/27 13/47/27 11/48/27 9/49/27 7/50/27 5/51/27
f 26/1/28 27/4/29 28/52/29 25/53/28
f 27/4/29 29/24/30 30/54/30 28/52/29
f 29/24/30 31/26/31 32/55/31 30/54/30
f 31/5/32 33/8/33 34/56/33 32/57/32
f 33/8/33 35/10/34 36/58/34 34/56/33
f 35/10/34 37/12/35 38/59/35 36/58/34
f 37/12/35 39/14/36 40/60/36 38/59/35
f 39/14/36 41/16/37 42/61/37 40/60/36
f 41/16/37 43/18/38 44/62/38 42/61/37
f 43/18/38 45/20/39 46/63/39 44/62/38
f 45/20/39 47/22/40 48/64/40 46/63/39
f 47/22/40 26/1/28 25/53/28 48/64/40
f 25/65/41 28/66/41 30/67/41 32/68/41 34/69/41 36/70/41 38/71/41 40/72/41 42/73/41 44/74/41 46/75/41 48/76/41
f 31/5/6 8/6/6 50/77/6 51/78/6
f 31/26/6 32/55/6 52/79/6 51/80/6
f 7/30/6 8/25/6 50/81/6 49/82/6

# 41 faces
