# Blender 3.3.1
# www.blender.org
mtllib SODA_1A.mtl
o SODA_1A
v 0.000000 2.400000 -0.830255
v 0.000000 2.055682 -1.000000
v 0.415128 2.400000 -0.719022
v 0.500000 2.055682 -0.866025
v 0.719022 2.400000 -0.415128
v 0.866025 2.055682 -0.500000
v 0.830255 2.400000 0.000000
v 1.000000 2.055682 0.000000
v 0.719022 2.400000 0.415128
v 0.866025 2.055682 0.500000
v 0.415128 2.400000 0.719022
v 0.500000 2.055682 0.866025
v 0.000000 2.400000 0.830255
v 0.000000 2.055682 1.000000
v -0.415128 2.400000 0.719022
v -0.500000 2.055682 0.866025
v -0.719022 2.400000 0.415127
v -0.866025 2.055682 0.500000
v -0.830255 2.400000 0.000000
v -1.000000 2.055682 0.000000
v -0.719022 2.400000 -0.415127
v -0.866025 2.055682 -0.500000
v -0.415128 2.400000 -0.719022
v -0.500000 2.055682 -0.866025
v 0.000000 -2.100000 -0.946335
v 0.000000 -1.991145 -1.000000
v 0.500000 -1.991145 -0.866025
v 0.473168 -2.100000 -0.819551
v 0.866025 -1.991145 -0.500000
v 0.819551 -2.100000 -0.473168
v 1.000000 -1.991145 -0.000000
v 0.946335 -2.100000 -0.000000
v 0.866025 -1.991145 0.500000
v 0.819551 -2.100000 0.473168
v 0.500000 -1.991145 0.866025
v 0.473168 -2.100000 0.819551
v 0.000000 -1.991145 1.000000
v 0.000000 -2.100000 0.946335
v -0.500000 -1.991145 0.866025
v -0.473168 -2.100000 0.819551
v -0.866025 -1.991145 0.500000
v -0.819551 -2.100000 0.473168
v -1.000000 -1.991145 -0.000000
v -0.946335 -2.100000 -0.000000
v -0.866025 -1.991145 -0.500000
v -0.819551 -2.100000 -0.473168
v -0.500000 -1.991145 -0.866025
v -0.473168 -2.100000 -0.819550
v 0.830255 2.400000 0.000000
v 1.000000 2.055682 0.000000
v 1.000000 -1.991145 -0.000000
v 0.946335 -2.100000 -0.000000
v 0.000000 2.400000 0.000000
v 0.000000 -2.100000 -0.000000
vn -0.0000 -0.0000 -1.0000
vn 0.5000 0.0001 -0.8660
vn 0.9659 -0.0000 0.2588
vn 0.8660 0.0001 0.5000
vn 0.8660 -0.0000 0.5000
vn 0.5000 -0.0000 0.8660
vn 0.5000 -0.0001 0.8660
vn -0.0000 -0.0000 1.0000
vn -0.5000 0.0001 0.8660
vn -0.5000 -0.0000 0.8660
vn -0.8660 -0.0000 0.5000
vn -0.8660 -0.0001 0.5000
vn -1.0000 0.0001 -0.0000
vn -1.0000 -0.0001 -0.0000
vn -0.8660 0.0001 -0.5000
vn -1.0000 -0.0000 -0.0000
vn -0.8660 -0.0000 -0.5000
vn -0.5000 -0.0000 -0.8660
vn 0.5000 -0.0000 -0.8660
vn 0.8660 -0.0000 -0.5000
vn 0.8660 -0.0001 -0.5000
vn 0.9659 -0.0000 -0.2588
vn -0.5000 -0.0001 -0.8660
vn 0.4485 0.4422 -0.7768
vn -0.0000 0.4422 -0.8969
vn 0.7768 0.4422 -0.4485
vn 0.8721 0.4299 -0.2337
vn 0.7768 0.4422 0.4485
vn 0.8721 0.4299 0.2337
vn 0.4485 0.4422 0.7768
vn -0.0000 0.4422 0.8969
vn -0.4485 0.4422 0.7768
vn -0.7768 0.4422 0.4485
vn -0.8969 0.4422 -0.0000
vn -0.7768 0.4422 -0.4485
vn -0.4485 0.4422 -0.7768
vn -0.0000 -1.0000 -0.0000
vn -0.0000 -0.4422 -0.8969
vn 0.4485 -0.4422 -0.7768
vn 0.7768 -0.4422 -0.4485
vn 0.8721 -0.4299 -0.2337
vn 0.7768 -0.4422 0.4485
vn 0.8721 -0.4299 0.2337
vn 0.4485 -0.4422 0.7768
vn -0.0000 -0.4422 0.8969
vn -0.4485 -0.4422 0.7768
vn -0.7768 -0.4422 0.4485
vn -0.8969 -0.4422 -0.0000
vn -0.7768 -0.4422 -0.4485
vn -0.4485 -0.4422 -0.7768
vn -0.0000 1.0000 -0.0000
vt 0.908682 0.228704
vt 0.265325 0.976182
vt 0.265325 0.924900
vt 0.908682 0.144543
vt 0.186339 0.976182
vt 0.186339 0.924900
vt 0.866601 0.071657
vt 0.107352 0.976182
vt 0.107352 0.924900
vt 0.793715 0.029576
vt 0.976204 0.976182
vt 0.028365 0.976182
vt 0.976204 0.924900
vt 0.028365 0.924900
vt 0.709554 0.029576
vt 0.897218 0.976182
vt 0.897218 0.924900
vt 0.636668 0.071656
vt 0.818231 0.976182
vt 0.818231 0.924900
vt 0.594587 0.144543
vt 0.739245 0.976182
vt 0.739245 0.924900
vt 0.594587 0.228704
vt 0.660258 0.976182
vt 0.660258 0.924900
vt 0.636668 0.301590
vt 0.581271 0.976182
vt 0.581271 0.924900
vt 0.709554 0.343671
vt 0.502285 0.976182
vt 0.502285 0.924900
vt 0.793715 0.343671
vt 0.423298 0.976182
vt 0.423298 0.924900
vt 0.866601 0.301590
vt 0.344312 0.976182
vt 0.344312 0.924900
vt 0.181712 0.070877
vt 0.265325 0.368086
vt 0.265325 0.384298
vt 0.186339 0.384298
vt 0.255105 0.028504
vt 0.186339 0.368086
vt 0.107352 0.384298
vt 0.339851 0.028504
vt 0.107352 0.368086
vt 0.976204 0.384298
vt 0.028365 0.384298
vt 0.413243 0.070877
vt 0.976204 0.368086
vt 0.028365 0.368086
vt 0.897218 0.384298
vt 0.455616 0.144269
vt 0.897218 0.368086
vt 0.818231 0.384298
vt 0.455616 0.229016
vt 0.818231 0.368086
vt 0.739245 0.384298
vt 0.413243 0.302408
vt 0.739245 0.368086
vt 0.660258 0.384298
vt 0.339851 0.344781
vt 0.660258 0.368086
vt 0.581271 0.384298
vt 0.255105 0.344781
vt 0.581271 0.368086
vt 0.502285 0.384298
vt 0.181712 0.302408
vt 0.502285 0.368086
vt 0.423298 0.384298
vt 0.139339 0.229016
vt 0.423298 0.368086
vt 0.344312 0.384298
vt 0.139339 0.144269
vt 0.344312 0.368086
vt 0.028365 0.976182
vt 0.976204 0.924900
vt 0.028365 0.924900
vt 0.976204 0.384298
vt 0.028365 0.384298
vt 0.028365 0.368086
vt 0.751634 0.186623
vt 0.297478 0.186642
s 0
usemtl Material.001
f 2/3/1 27/42/2 26/41/1
f 8/13/3 33/53/4 31/48/3
f 10/17/5 35/56/6 33/53/5
f 12/20/7 37/59/8 35/56/6
f 14/23/8 39/62/9 37/59/8
f 16/26/10 41/65/11 39/62/10
f 18/29/12 43/68/13 41/65/11
f 20/32/14 45/71/15 43/68/16
f 22/35/17 47/74/18 45/71/17
f 4/6/19 29/45/20 27/42/19
f 6/9/21 31/49/22 29/45/20
f 24/38/23 26/41/1 47/74/18
f 4/6/24 1/2/25 3/5/24
f 4/6/24 5/8/26 6/9/26
f 6/9/26 7/12/27 8/14/27
f 10/17/28 7/11/29 9/16/28
f 10/17/28 11/19/30 12/20/30
f 12/20/30 13/22/31 14/23/31
f 16/26/32 13/22/31 15/25/32
f 18/29/33 15/25/32 17/28/33
f 20/32/34 17/28/33 19/31/34
f 20/32/34 21/34/35 22/35/35
f 22/35/35 23/37/36 24/38/36
f 24/38/36 1/2/25 2/3/25
f 25/39/37 28/43/37 54/84/37
f 26/41/38 28/44/39 25/40/38
f 27/42/39 30/47/40 28/44/39
f 31/49/41 30/47/40 29/45/40
f 33/53/42 32/51/43 31/48/43
f 35/56/44 34/55/42 33/53/42
f 35/56/44 38/61/45 36/58/44
f 37/59/45 40/64/46 38/61/45
f 39/62/46 42/67/47 40/64/46
f 43/68/48 42/67/47 41/65/47
f 45/71/49 44/70/48 43/68/48
f 45/71/49 48/76/50 46/73/49
f 47/74/50 25/40/38 48/76/50
f 2/3/1 4/6/19 27/42/2
f 31/48/8 50/78/8 51/80/8
f 31/49/8 52/82/8 51/81/8
f 7/12/8 50/79/8 49/77/8
f 3/4/51 1/1/51 53/83/51
f 1/1/51 23/36/51 53/83/51
f 23/36/51 21/33/51 53/83/51
f 21/33/51 19/30/51 53/83/51
f 19/30/51 17/27/51 53/83/51
f 17/27/51 15/24/51 53/83/51
f 15/24/51 13/21/51 53/83/51
f 13/21/51 11/18/51 53/83/51
f 11/18/51 9/15/51 53/83/51
f 9/15/51 7/10/51 53/83/51
f 7/10/51 5/7/51 53/83/51
f 5/7/51 3/4/51 53/83/51
f 28/43/37 30/46/37 54/84/37
f 30/46/37 32/50/37 54/84/37
f 32/50/37 34/54/37 54/84/37
f 34/54/37 36/57/37 54/84/37
f 36/57/37 38/60/37 54/84/37
f 38/60/37 40/63/37 54/84/37
f 40/63/37 42/66/37 54/84/37
f 42/66/37 44/69/37 54/84/37
f 44/69/37 46/72/37 54/84/37
f 46/72/37 48/75/37 54/84/37
f 48/75/37 25/39/37 54/84/37
f 8/13/3 10/17/5 33/53/4
f 10/17/5 12/20/6 35/56/6
f 12/20/7 14/23/8 37/59/8
f 14/23/8 16/26/10 39/62/9
f 16/26/10 18/29/11 41/65/11
f 18/29/12 20/32/16 43/68/13
f 20/32/14 22/35/17 45/71/15
f 22/35/17 24/38/18 47/74/18
f 4/6/19 6/9/20 29/45/20
f 6/9/21 8/14/22 31/49/22
f 24/38/23 2/3/1 26/41/1
f 4/6/24 2/3/25 1/2/25
f 4/6/24 3/5/24 5/8/26
f 6/9/26 5/8/26 7/12/27
f 10/17/28 8/13/29 7/11/29
f 10/17/28 9/16/28 11/19/30
f 12/20/30 11/19/30 13/22/31
f 16/26/32 14/23/31 13/22/31
f 18/29/33 16/26/32 15/25/32
f 20/32/34 18/29/33 17/28/33
f 20/32/34 19/31/34 21/34/35
f 22/35/35 21/34/35 23/37/36
f 24/38/36 23/37/36 1/2/25
f 26/41/38 27/42/39 28/44/39
f 27/42/39 29/45/40 30/47/40
f 31/49/41 32/52/41 30/47/40
f 33/53/42 34/55/42 32/51/43
f 35/56/44 36/58/44 34/55/42
f 35/56/44 37/59/45 38/61/45
f 37/59/45 39/62/46 40/64/46
f 39/62/46 41/65/47 42/67/47
f 43/68/48 44/70/48 42/67/47
f 45/71/49 46/73/49 44/70/48
f 45/71/49 47/74/50 48/76/50
f 47/74/50 26/41/38 25/40/38
f 31/48/8 8/13/8 50/78/8
f 31/49/8 32/52/8 52/82/8
f 7/12/8 8/14/8 50/79/8
