# Blender v3.2.2 OBJ File: 'Tall Grass 1.blend'
# www.blender.org
mtllib Tall Grass 2.mtl
o Plane.019
v -0.372698 -0.003974 -0.239549
v 0.362303 -0.018005 0.239007
v -0.336938 0.871985 -0.268789
v 0.398063 0.857955 0.209767
v 0.291192 -0.010990 -0.388207
v -0.301587 -0.010990 0.387665
v 0.291192 0.965414 -0.388207
v -0.301587 0.965414 0.387665
v -0.016926 -0.010990 -0.256627
v 0.006531 -0.010990 0.256085
v -0.016926 0.502259 -0.256627
v 0.006531 0.502259 0.256085
v 0.251159 -0.010990 -0.012000
v -0.261553 -0.010990 0.011458
v 0.251159 0.502259 -0.011999
v -0.261553 0.502259 0.011458
v 0.435621 -0.010990 -0.210080
v -0.446016 -0.010990 0.209538
v 0.435621 0.669269 -0.210080
v -0.446016 0.669269 0.209538
v 0.204611 -0.010990 0.440548
v -0.215006 -0.010990 -0.441090
v 0.204611 0.669269 0.440548
v -0.215006 0.669269 -0.441090
v 0.228232 -0.010990 0.106344
v -0.238627 -0.010990 -0.106886
v 0.228232 0.346589 0.106344
v -0.238627 0.346589 -0.106886
v -0.111812 -0.010990 0.233158
v 0.101418 -0.010990 -0.233700
v -0.111812 0.346589 0.233158
v 0.101418 0.346589 -0.233700
vt 0.034225 0.503077
vt 0.492188 0.938990
vt 0.034225 0.938990
vt 0.492188 0.503077
vt 0.034225 0.938990
vt 0.034225 0.503077
vt 0.034225 0.503077
vt 0.492188 0.938990
vt 0.034225 0.938990
vt 0.492188 0.503077
vt 0.034225 0.938990
vt 0.034225 0.503077
vt 0.492188 0.503077
vt 0.034225 0.938990
vt 0.034225 0.503077
vt 0.492188 0.503077
vt 0.034225 0.938990
vt 0.034225 0.503077
vt 0.492188 0.503077
vt 0.034225 0.938990
vt 0.034225 0.503077
vt 0.492188 0.503077
vt 0.034225 0.938990
vt 0.034225 0.503077
vt 0.492188 0.503077
vt 0.492188 0.938990
vt 0.492188 0.503077
vt 0.492188 0.938990
vt 0.492188 0.938990
vt 0.492188 0.938990
vt 0.492188 0.938990
vt 0.492188 0.938990
vn -0.5443 0.0502 0.8374
vn -0.7946 0.0000 -0.6071
vn -0.9990 0.0000 0.0457
vn -0.0457 0.0000 -0.9990
vn -0.4298 0.0000 -0.9029
vn 0.9029 0.0000 -0.4298
vn 0.4155 0.0000 -0.9096
vn 0.9096 0.0000 0.4155
usemtl Material
s off
f 1/1/1 4/2/1 3/3/1
f 6/4/2 7/5/2 5/6/2
f 9/7/3 12/8/3 11/9/3
f 14/10/4 15/11/4 13/12/4
f 18/13/5 19/14/5 17/15/5
f 22/16/6 23/17/6 21/18/6
f 26/19/7 27/20/7 25/21/7
f 30/22/8 31/23/8 29/24/8
f 1/1/1 2/25/1 4/2/1
f 6/4/2 8/26/2 7/5/2
f 9/7/3 10/27/3 12/8/3
f 14/10/4 16/28/4 15/11/4
f 18/13/5 20/29/5 19/14/5
f 22/16/6 24/30/6 23/17/6
f 26/19/7 28/31/7 27/20/7
f 30/22/8 32/32/8 31/23/8
